<?xml version="1.0" encoding="UTF-8"?>
<svg id="Layer_2" data-name="Layer 2" xmlns="http://www.w3.org/2000/svg" viewBox="0 0 1655.78 63.26">
  <defs>
    <style>
      .cls-1 {
        fill: #ff3972;
      }
    </style>
  </defs>
  <g id="Layer_1-2" data-name="Layer 1">
    <g>
      <g>
        <g>
          <path class="cls-1" d="m15.26,58.58c-3,0-5.63-.77-7.91-2.32-2.28-1.54-4.08-3.81-5.38-6.81-1.31-2.99-1.96-6.63-1.96-10.91,0-3.99.57-7.45,1.71-10.37,1.14-2.92,2.8-5.17,4.99-6.74,2.19-1.57,4.85-2.35,7.99-2.35,2.33,0,4.33.43,5.99,1.28,1.66.86,3.04,2.19,4.14,3.99,1.09,1.81,1.92,4.09,2.5,6.84h1.35c-.29-1.57-.57-3.1-.86-4.6-.29-1.5-.5-2.92-.64-4.28s-.21-2.55-.21-3.6V6.74h11.55v50.84h-9.63l-.07-11.34h-1.21c-.47,2.85-1.27,5.18-2.39,6.99-1.12,1.81-2.51,3.15-4.17,4.03-1.66.88-3.59,1.32-5.77,1.32Zm4.14-9.2c1.23,0,2.34-.29,3.31-.86.97-.57,1.77-1.33,2.39-2.28.62-.95,1.09-2.02,1.43-3.21.33-1.19.5-2.4.5-3.64v-1.14c0-1.09-.12-2.14-.36-3.14s-.6-1.91-1.07-2.74c-.48-.83-1.05-1.54-1.71-2.14-.67-.59-1.4-1.07-2.21-1.43-.81-.36-1.64-.53-2.5-.53-1.57,0-2.89.46-3.96,1.39s-1.88,2.17-2.42,3.74c-.55,1.57-.82,3.38-.82,5.42s.29,3.85.86,5.42c.57,1.57,1.42,2.82,2.57,3.74,1.14.93,2.47,1.39,3.99,1.39Z"/>
          <path class="cls-1" d="m69.44,58.58c-2.28,0-4.29-.46-6.02-1.39-1.74-.93-3.15-2.3-4.24-4.14-1.09-1.83-1.85-4.1-2.28-6.81h-1.07l-.14,11.34h-9.63V6.74h11.48v11.98c0,1.19-.07,2.46-.21,3.81-.14,1.35-.33,2.75-.57,4.17-.24,1.43-.52,2.92-.85,4.49h1.28c.62-2.76,1.47-5.03,2.57-6.81,1.09-1.78,2.47-3.11,4.14-3.99,1.66-.88,3.59-1.32,5.77-1.32,3.04,0,5.67.76,7.88,2.28,2.21,1.52,3.93,3.74,5.17,6.67s1.85,6.5,1.85,10.73-.63,7.82-1.89,10.77c-1.26,2.95-3.02,5.19-5.28,6.74-2.26,1.54-4.91,2.32-7.95,2.32Zm-4.2-9.2c1.52,0,2.83-.46,3.92-1.39,1.09-.93,1.95-2.16,2.57-3.71.62-1.54.93-3.34.93-5.38s-.29-3.92-.85-5.49c-.57-1.57-1.39-2.82-2.46-3.74-1.07-.93-2.36-1.39-3.89-1.39-.95,0-1.83.18-2.64.53-.81.36-1.53.83-2.17,1.43-.64.6-1.2,1.3-1.68,2.1-.48.81-.84,1.72-1.1,2.75-.26,1.02-.39,2.08-.39,3.17v1.14c0,1.24.17,2.45.5,3.64.33,1.19.82,2.26,1.46,3.21.64.95,1.46,1.71,2.46,2.28,1,.57,2.11.86,3.35.86Z"/>
          <path class="cls-1" d="m90.48,57.58V19.94h9.55l.14,13.55h1.14c.33-3.56.95-6.38,1.85-8.45.9-2.07,2.13-3.58,3.67-4.53,1.55-.95,3.43-1.43,5.67-1.43.57,0,1.16.06,1.78.18.62.12,1.3.3,2.07.54l-.5,12.41c-.9-.43-1.82-.74-2.75-.93-.93-.19-1.75-.29-2.46-.29-1.76,0-3.25.38-4.49,1.14-1.24.76-2.21,1.9-2.92,3.42-.71,1.52-1.14,3.42-1.28,5.7v16.33h-11.48Z"/>
          <path class="cls-1" d="m126.84,15.59c-2.19,0-3.86-.47-5.03-1.43-1.16-.95-1.75-2.28-1.75-3.99,0-1.81.58-3.17,1.75-4.1s2.84-1.39,5.03-1.39,3.93.48,5.1,1.43c1.16.95,1.75,2.31,1.75,4.06s-.58,3.04-1.75,3.99c-1.17.95-2.86,1.43-5.1,1.43Zm-5.7,42V19.94h11.55v37.65h-11.55Z"/>
          <path class="cls-1" d="m146.09,37.05v-8.34l-7.84-.43v-7.56l7.84.43v-8.06h8.63v8.2c6.2.07,12.33-.14,19.25-.57v7.56c-6.92.43-13.05.64-19.25.57v8.27c0,10.48,2.64,14.26,7.98,14.26,4.14,0,6.28-2.5,6.28-6.13s-.78-5.63-4.41-8.26l5.85-4.78c5.35,3.92,7.34,7.76,7.34,13.11,0,8.06-5.78,13.26-15.4,13.26s-16.26-4.78-16.26-21.53Z"/>
        </g>
        <path class="cls-1" d="m189.29,56.22v-5.41h-5.41v-27.07h5.41v-5.41h27.07v5.41h5.41v21.66h-5.41v5.41h-5.41v5.41h-21.66Zm5.41-5.41h10.83v-5.41h5.41v-21.66h-16.24v27.07Z"/>
      </g>
      <g>
        <g>
          <path class="cls-1" d="m383.26,58.58c-3,0-5.63-.77-7.91-2.32-2.28-1.54-4.08-3.81-5.38-6.81-1.31-2.99-1.96-6.63-1.96-10.91,0-3.99.57-7.45,1.71-10.37,1.14-2.92,2.8-5.17,4.99-6.74,2.19-1.57,4.85-2.35,7.99-2.35,2.33,0,4.33.43,5.99,1.28,1.66.86,3.04,2.19,4.14,3.99,1.09,1.81,1.92,4.09,2.5,6.84h1.35c-.29-1.57-.57-3.1-.86-4.6-.29-1.5-.5-2.92-.64-4.28s-.21-2.55-.21-3.6V6.74h11.55v50.84h-9.63l-.07-11.34h-1.21c-.47,2.85-1.27,5.18-2.39,6.99-1.12,1.81-2.51,3.15-4.17,4.03-1.66.88-3.59,1.32-5.77,1.32Zm4.14-9.2c1.23,0,2.34-.29,3.31-.86.97-.57,1.77-1.33,2.39-2.28.62-.95,1.09-2.02,1.43-3.21.33-1.19.5-2.4.5-3.64v-1.14c0-1.09-.12-2.14-.36-3.14s-.6-1.91-1.07-2.74c-.48-.83-1.05-1.54-1.71-2.14-.67-.59-1.4-1.07-2.21-1.43-.81-.36-1.64-.53-2.5-.53-1.57,0-2.89.46-3.96,1.39s-1.88,2.17-2.42,3.74c-.55,1.57-.82,3.38-.82,5.42s.29,3.85.86,5.42c.57,1.57,1.42,2.82,2.57,3.74,1.14.93,2.47,1.39,3.99,1.39Z"/>
          <path class="cls-1" d="m437.44,58.58c-2.28,0-4.29-.46-6.02-1.39-1.74-.93-3.15-2.3-4.24-4.14-1.09-1.83-1.85-4.1-2.28-6.81h-1.07l-.14,11.34h-9.63V6.74h11.48v11.98c0,1.19-.07,2.46-.21,3.81-.14,1.35-.33,2.75-.57,4.17-.24,1.43-.52,2.92-.85,4.49h1.28c.62-2.76,1.47-5.03,2.57-6.81,1.09-1.78,2.47-3.11,4.14-3.99,1.66-.88,3.59-1.32,5.77-1.32,3.04,0,5.67.76,7.88,2.28,2.21,1.52,3.93,3.74,5.17,6.67s1.85,6.5,1.85,10.73-.63,7.82-1.89,10.77c-1.26,2.95-3.02,5.19-5.28,6.74-2.26,1.54-4.91,2.32-7.95,2.32Zm-4.2-9.2c1.52,0,2.83-.46,3.92-1.39,1.09-.93,1.95-2.16,2.57-3.71.62-1.54.93-3.34.93-5.38s-.29-3.92-.85-5.49c-.57-1.57-1.39-2.82-2.46-3.74-1.07-.93-2.36-1.39-3.89-1.39-.95,0-1.83.18-2.64.53-.81.36-1.53.83-2.17,1.43-.64.6-1.2,1.3-1.68,2.1-.48.81-.84,1.72-1.1,2.75-.26,1.02-.39,2.08-.39,3.17v1.14c0,1.24.17,2.45.5,3.64.33,1.19.82,2.26,1.46,3.21.64.95,1.46,1.71,2.46,2.28,1,.57,2.11.86,3.35.86Z"/>
          <path class="cls-1" d="m458.48,57.58V19.94h9.55l.14,13.55h1.14c.33-3.56.95-6.38,1.85-8.45.9-2.07,2.13-3.58,3.67-4.53,1.55-.95,3.43-1.43,5.67-1.43.57,0,1.16.06,1.78.18.62.12,1.3.3,2.07.54l-.5,12.41c-.9-.43-1.82-.74-2.75-.93-.93-.19-1.75-.29-2.46-.29-1.76,0-3.25.38-4.49,1.14-1.24.76-2.21,1.9-2.92,3.42-.71,1.52-1.14,3.42-1.28,5.7v16.33h-11.48Z"/>
          <path class="cls-1" d="m494.84,15.59c-2.19,0-3.86-.47-5.03-1.43-1.16-.95-1.75-2.28-1.75-3.99,0-1.81.58-3.17,1.75-4.1s2.84-1.39,5.03-1.39,3.93.48,5.1,1.43c1.16.95,1.75,2.31,1.75,4.06s-.58,3.04-1.75,3.99c-1.17.95-2.86,1.43-5.1,1.43Zm-5.7,42V19.94h11.55v37.65h-11.55Z"/>
          <path class="cls-1" d="m514.09,37.05v-8.34l-7.84-.43v-7.56l7.84.43v-8.06h8.63v8.2c6.2.07,12.33-.14,19.25-.57v7.56c-6.92.43-13.05.64-19.25.57v8.27c0,10.48,2.64,14.26,7.98,14.26,4.14,0,6.28-2.5,6.28-6.13s-.78-5.63-4.41-8.26l5.85-4.78c5.35,3.92,7.34,7.76,7.34,13.11,0,8.06-5.78,13.26-15.4,13.26s-16.26-4.78-16.26-21.53Z"/>
        </g>
        <path class="cls-1" d="m557.29,56.22v-5.41h-5.41v-27.07h5.41v-5.41h27.07v5.41h5.41v21.66h-5.41v5.41h-5.41v5.41h-21.66Zm5.41-5.41h10.83v-5.41h5.41v-21.66h-16.24v27.07Z"/>
      </g>
      <g>
        <g>
          <path class="cls-1" d="m733.26,58.58c-3,0-5.63-.77-7.91-2.32-2.28-1.54-4.08-3.81-5.38-6.81-1.31-2.99-1.96-6.63-1.96-10.91,0-3.99.57-7.45,1.71-10.37,1.14-2.92,2.8-5.17,4.99-6.74,2.19-1.57,4.85-2.35,7.99-2.35,2.33,0,4.33.43,5.99,1.28,1.66.86,3.04,2.19,4.14,3.99,1.09,1.81,1.92,4.09,2.5,6.84h1.35c-.29-1.57-.57-3.1-.86-4.6-.29-1.5-.5-2.92-.64-4.28s-.21-2.55-.21-3.6V6.74h11.55v50.84h-9.63l-.07-11.34h-1.21c-.47,2.85-1.27,5.18-2.39,6.99-1.12,1.81-2.51,3.15-4.17,4.03-1.66.88-3.59,1.32-5.77,1.32Zm4.14-9.2c1.23,0,2.34-.29,3.31-.86.97-.57,1.77-1.33,2.39-2.28.62-.95,1.09-2.02,1.43-3.21.33-1.19.5-2.4.5-3.64v-1.14c0-1.09-.12-2.14-.36-3.14s-.6-1.91-1.07-2.74c-.48-.83-1.05-1.54-1.71-2.14-.67-.59-1.4-1.07-2.21-1.43-.81-.36-1.64-.53-2.5-.53-1.57,0-2.89.46-3.96,1.39s-1.88,2.17-2.42,3.74c-.55,1.57-.82,3.38-.82,5.42s.29,3.85.86,5.42c.57,1.57,1.42,2.82,2.57,3.74,1.14.93,2.47,1.39,3.99,1.39Z"/>
          <path class="cls-1" d="m787.44,58.58c-2.28,0-4.29-.46-6.02-1.39-1.74-.93-3.15-2.3-4.24-4.14-1.09-1.83-1.85-4.1-2.28-6.81h-1.07l-.14,11.34h-9.63V6.74h11.48v11.98c0,1.19-.07,2.46-.21,3.81-.14,1.35-.33,2.75-.57,4.17-.24,1.43-.52,2.92-.85,4.49h1.28c.62-2.76,1.47-5.03,2.57-6.81,1.09-1.78,2.47-3.11,4.14-3.99,1.66-.88,3.59-1.32,5.77-1.32,3.04,0,5.67.76,7.88,2.28,2.21,1.52,3.93,3.74,5.17,6.67s1.85,6.5,1.85,10.73-.63,7.82-1.89,10.77c-1.26,2.95-3.02,5.19-5.28,6.74-2.26,1.54-4.91,2.32-7.95,2.32Zm-4.2-9.2c1.52,0,2.83-.46,3.92-1.39,1.09-.93,1.95-2.16,2.57-3.71.62-1.54.93-3.34.93-5.38s-.29-3.92-.85-5.49c-.57-1.57-1.39-2.82-2.46-3.74-1.07-.93-2.36-1.39-3.89-1.39-.95,0-1.83.18-2.64.53-.81.36-1.53.83-2.17,1.43-.64.6-1.2,1.3-1.68,2.1-.48.81-.84,1.72-1.1,2.75-.26,1.02-.39,2.08-.39,3.17v1.14c0,1.24.17,2.45.5,3.64.33,1.19.82,2.26,1.46,3.21.64.95,1.46,1.71,2.46,2.28,1,.57,2.11.86,3.35.86Z"/>
          <path class="cls-1" d="m808.48,57.58V19.94h9.55l.14,13.55h1.14c.33-3.56.95-6.38,1.85-8.45.9-2.07,2.13-3.58,3.67-4.53,1.55-.95,3.43-1.43,5.67-1.43.57,0,1.16.06,1.78.18.62.12,1.3.3,2.07.54l-.5,12.41c-.9-.43-1.82-.74-2.75-.93-.93-.19-1.75-.29-2.46-.29-1.76,0-3.25.38-4.49,1.14-1.24.76-2.21,1.9-2.92,3.42-.71,1.52-1.14,3.42-1.28,5.7v16.33h-11.48Z"/>
          <path class="cls-1" d="m844.84,15.59c-2.19,0-3.86-.47-5.03-1.43-1.16-.95-1.75-2.28-1.75-3.99,0-1.81.58-3.17,1.75-4.1s2.84-1.39,5.03-1.39,3.93.48,5.1,1.43c1.16.95,1.75,2.31,1.75,4.06s-.58,3.04-1.75,3.99c-1.17.95-2.86,1.43-5.1,1.43Zm-5.7,42V19.94h11.55v37.65h-11.55Z"/>
          <path class="cls-1" d="m864.09,37.05v-8.34l-7.84-.43v-7.56l7.84.43v-8.06h8.63v8.2c6.2.07,12.33-.14,19.25-.57v7.56c-6.92.43-13.05.64-19.25.57v8.27c0,10.48,2.64,14.26,7.98,14.26,4.14,0,6.28-2.5,6.28-6.13s-.78-5.63-4.41-8.26l5.85-4.78c5.35,3.92,7.34,7.76,7.34,13.11,0,8.06-5.78,13.26-15.4,13.26s-16.26-4.78-16.26-21.53Z"/>
        </g>
        <path class="cls-1" d="m907.29,56.22v-5.41h-5.41v-27.07h5.41v-5.41h27.07v5.41h5.41v21.66h-5.41v5.41h-5.41v5.41h-21.66Zm5.41-5.41h10.83v-5.41h5.41v-21.66h-16.24v27.07Z"/>
      </g>
      <path class="cls-1" d="m301.22,0h-1.78c0,16.89-12.21,30.62-27.22,30.62v2.01c15.01,0,27.22,13.74,27.22,30.62h1.78c0-16.89,12.21-30.62,27.22-30.62v-2.01c-15.01,0-27.22-13.74-27.22-30.62Z"/>
      <polygon class="cls-1" points="678.91 50.32 664.26 44.2 659.66 59.4 653.63 44.72 639.63 52.22 645.75 37.56 630.55 32.97 645.24 26.93 637.74 12.93 652.39 19.05 656.99 3.85 663.02 18.54 677.02 11.04 670.9 25.7 686.1 30.29 671.41 36.33 678.91 50.32"/>
      <g>
        <g>
          <path class="cls-1" d="m1099.26,58.58c-3,0-5.63-.77-7.91-2.32-2.28-1.54-4.08-3.81-5.38-6.81-1.31-2.99-1.96-6.63-1.96-10.91,0-3.99.57-7.45,1.71-10.37,1.14-2.92,2.8-5.17,4.99-6.74,2.19-1.57,4.85-2.35,7.99-2.35,2.33,0,4.33.43,5.99,1.28,1.66.86,3.04,2.19,4.14,3.99,1.09,1.81,1.92,4.09,2.5,6.84h1.35c-.29-1.57-.57-3.1-.86-4.6-.29-1.5-.5-2.92-.64-4.28s-.21-2.55-.21-3.6V6.74h11.55v50.84h-9.63l-.07-11.34h-1.21c-.47,2.85-1.27,5.18-2.39,6.99-1.12,1.81-2.51,3.15-4.17,4.03-1.66.88-3.59,1.32-5.77,1.32Zm4.14-9.2c1.23,0,2.34-.29,3.31-.86.97-.57,1.77-1.33,2.39-2.28.62-.95,1.09-2.02,1.43-3.21.33-1.19.5-2.4.5-3.64v-1.14c0-1.09-.12-2.14-.36-3.14s-.6-1.91-1.07-2.74c-.48-.83-1.05-1.54-1.71-2.14-.67-.59-1.4-1.07-2.21-1.43-.81-.36-1.64-.53-2.5-.53-1.57,0-2.89.46-3.96,1.39s-1.88,2.17-2.42,3.74c-.55,1.57-.82,3.38-.82,5.42s.29,3.85.86,5.42c.57,1.57,1.42,2.82,2.57,3.74,1.14.93,2.47,1.39,3.99,1.39Z"/>
          <path class="cls-1" d="m1153.44,58.58c-2.28,0-4.29-.46-6.02-1.39-1.74-.93-3.15-2.3-4.24-4.14-1.09-1.83-1.85-4.1-2.28-6.81h-1.07l-.14,11.34h-9.63V6.74h11.48v11.98c0,1.19-.07,2.46-.21,3.81-.14,1.35-.33,2.75-.57,4.17-.24,1.43-.52,2.92-.85,4.49h1.28c.62-2.76,1.47-5.03,2.57-6.81,1.09-1.78,2.47-3.11,4.14-3.99,1.66-.88,3.59-1.32,5.77-1.32,3.04,0,5.67.76,7.88,2.28,2.21,1.52,3.93,3.74,5.17,6.67s1.85,6.5,1.85,10.73-.63,7.82-1.89,10.77c-1.26,2.95-3.02,5.19-5.28,6.74-2.26,1.54-4.91,2.32-7.95,2.32Zm-4.2-9.2c1.52,0,2.83-.46,3.92-1.39,1.09-.93,1.95-2.16,2.57-3.71.62-1.54.93-3.34.93-5.38s-.29-3.92-.85-5.49c-.57-1.57-1.39-2.82-2.46-3.74-1.07-.93-2.36-1.39-3.89-1.39-.95,0-1.83.18-2.64.53-.81.36-1.53.83-2.17,1.43-.64.6-1.2,1.3-1.68,2.1-.48.81-.84,1.72-1.1,2.75-.26,1.02-.39,2.08-.39,3.17v1.14c0,1.24.17,2.45.5,3.64.33,1.19.82,2.26,1.46,3.21.64.95,1.46,1.71,2.46,2.28s2.11.86,3.35.86Z"/>
          <path class="cls-1" d="m1174.48,57.58V19.94h9.55l.14,13.55h1.14c.33-3.56.95-6.38,1.85-8.45.9-2.07,2.13-3.58,3.67-4.53,1.55-.95,3.43-1.43,5.67-1.43.57,0,1.16.06,1.78.18.62.12,1.3.3,2.07.54l-.5,12.41c-.9-.43-1.82-.74-2.75-.93-.93-.19-1.75-.29-2.46-.29-1.76,0-3.25.38-4.49,1.14-1.24.76-2.21,1.9-2.92,3.42-.71,1.52-1.14,3.42-1.28,5.7v16.33h-11.48Z"/>
          <path class="cls-1" d="m1210.84,15.59c-2.19,0-3.86-.47-5.03-1.43-1.16-.95-1.75-2.28-1.75-3.99,0-1.81.58-3.17,1.75-4.1s2.84-1.39,5.03-1.39,3.93.48,5.1,1.43c1.16.95,1.75,2.31,1.75,4.06s-.58,3.04-1.75,3.99c-1.17.95-2.86,1.43-5.1,1.43Zm-5.7,42V19.94h11.55v37.65h-11.55Z"/>
          <path class="cls-1" d="m1230.09,37.05v-8.34l-7.84-.43v-7.56l7.84.43v-8.06h8.63v8.2c6.2.07,12.33-.14,19.25-.57v7.56c-6.92.43-13.05.64-19.25.57v8.27c0,10.48,2.64,14.26,7.98,14.26,4.14,0,6.28-2.5,6.28-6.13s-.78-5.63-4.41-8.26l5.85-4.78c5.35,3.92,7.34,7.76,7.34,13.11,0,8.06-5.78,13.26-15.4,13.26s-16.26-4.78-16.26-21.53Z"/>
        </g>
        <path class="cls-1" d="m1273.29,56.22v-5.41h-5.41v-27.07h5.41v-5.41h27.07v5.41h5.41v21.66h-5.41v5.41h-5.41v5.41h-21.66Zm5.41-5.41h10.83v-5.41h5.41v-21.66h-16.24v27.07Z"/>
      </g>
      <g>
        <g>
          <path class="cls-1" d="m1449.26,58.58c-3,0-5.63-.77-7.91-2.32-2.28-1.54-4.08-3.81-5.38-6.81-1.31-2.99-1.96-6.63-1.96-10.91,0-3.99.57-7.45,1.71-10.37,1.14-2.92,2.8-5.17,4.99-6.74,2.19-1.57,4.85-2.35,7.99-2.35,2.33,0,4.33.43,5.99,1.28,1.66.86,3.04,2.19,4.14,3.99,1.09,1.81,1.92,4.09,2.5,6.84h1.35c-.29-1.57-.57-3.1-.86-4.6-.29-1.5-.5-2.92-.64-4.28-.14-1.35-.21-2.55-.21-3.6V6.74h11.55v50.84h-9.63l-.07-11.34h-1.21c-.47,2.85-1.27,5.18-2.39,6.99-1.12,1.81-2.51,3.15-4.17,4.03-1.66.88-3.59,1.32-5.77,1.32Zm4.14-9.2c1.23,0,2.34-.29,3.31-.86.97-.57,1.77-1.33,2.39-2.28.62-.95,1.09-2.02,1.43-3.21.33-1.19.5-2.4.5-3.64v-1.14c0-1.09-.12-2.14-.36-3.14-.24-1-.6-1.91-1.07-2.74-.48-.83-1.05-1.54-1.71-2.14-.67-.59-1.4-1.07-2.21-1.43-.81-.36-1.64-.53-2.5-.53-1.57,0-2.89.46-3.96,1.39s-1.88,2.17-2.42,3.74c-.55,1.57-.82,3.38-.82,5.42s.29,3.85.86,5.42c.57,1.57,1.42,2.82,2.57,3.74,1.14.93,2.47,1.39,3.99,1.39Z"/>
          <path class="cls-1" d="m1503.44,58.58c-2.28,0-4.29-.46-6.02-1.39-1.74-.93-3.15-2.3-4.24-4.14-1.09-1.83-1.85-4.1-2.28-6.81h-1.07l-.14,11.34h-9.63V6.74h11.48v11.98c0,1.19-.07,2.46-.21,3.81-.14,1.35-.33,2.75-.57,4.17-.24,1.43-.52,2.92-.85,4.49h1.28c.62-2.76,1.47-5.03,2.57-6.81,1.09-1.78,2.47-3.11,4.14-3.99,1.66-.88,3.59-1.32,5.77-1.32,3.04,0,5.67.76,7.88,2.28,2.21,1.52,3.93,3.74,5.17,6.67s1.85,6.5,1.85,10.73-.63,7.82-1.89,10.77c-1.26,2.95-3.02,5.19-5.28,6.74-2.26,1.54-4.91,2.32-7.95,2.32Zm-4.2-9.2c1.52,0,2.83-.46,3.92-1.39,1.09-.93,1.95-2.16,2.57-3.71.62-1.54.93-3.34.93-5.38s-.29-3.92-.85-5.49c-.57-1.57-1.39-2.82-2.46-3.74-1.07-.93-2.36-1.39-3.89-1.39-.95,0-1.83.18-2.64.53-.81.36-1.53.83-2.17,1.43-.64.6-1.2,1.3-1.68,2.1-.48.81-.84,1.72-1.1,2.75-.26,1.02-.39,2.08-.39,3.17v1.14c0,1.24.17,2.45.5,3.64.33,1.19.82,2.26,1.46,3.21.64.95,1.46,1.71,2.46,2.28s2.11.86,3.35.86Z"/>
          <path class="cls-1" d="m1524.48,57.58V19.94h9.55l.14,13.55h1.14c.33-3.56.95-6.38,1.85-8.45.9-2.07,2.13-3.58,3.67-4.53,1.55-.95,3.43-1.43,5.67-1.43.57,0,1.16.06,1.78.18.62.12,1.3.3,2.07.54l-.5,12.41c-.9-.43-1.82-.74-2.75-.93-.93-.19-1.75-.29-2.46-.29-1.76,0-3.25.38-4.49,1.14-1.24.76-2.21,1.9-2.92,3.42-.71,1.52-1.14,3.42-1.28,5.7v16.33h-11.48Z"/>
          <path class="cls-1" d="m1560.84,15.59c-2.19,0-3.86-.47-5.03-1.43-1.16-.95-1.75-2.28-1.75-3.99,0-1.81.58-3.17,1.75-4.1s2.84-1.39,5.03-1.39,3.93.48,5.1,1.43c1.16.95,1.75,2.31,1.75,4.06s-.58,3.04-1.75,3.99c-1.17.95-2.86,1.43-5.1,1.43Zm-5.7,42V19.94h11.55v37.65h-11.55Z"/>
          <path class="cls-1" d="m1580.09,37.05v-8.34l-7.84-.43v-7.56l7.84.43v-8.06h8.63v8.2c6.2.07,12.33-.14,19.25-.57v7.56c-6.92.43-13.05.64-19.25.57v8.27c0,10.48,2.64,14.26,7.98,14.26,4.14,0,6.28-2.5,6.28-6.13s-.78-5.63-4.41-8.26l5.85-4.78c5.35,3.92,7.34,7.76,7.34,13.11,0,8.06-5.78,13.26-15.4,13.26s-16.26-4.78-16.26-21.53Z"/>
        </g>
        <path class="cls-1" d="m1623.29,56.22v-5.41h-5.41v-27.07h5.41v-5.41h27.07v5.41h5.41v21.66h-5.41v5.41h-5.41v5.41h-21.66Zm5.41-5.41h10.83v-5.41h5.41v-21.66h-16.24v27.07Z"/>
      </g>
      <path class="cls-1" d="m1017.22,0h-1.78c0,16.89-12.21,30.62-27.22,30.62v2.01c15.01,0,27.22,13.74,27.22,30.62h1.78c0-16.89,12.21-30.62,27.22-30.62v-2.01c-15.01,0-27.22-13.74-27.22-30.62Z"/>
      <polygon class="cls-1" points="1394.91 50.32 1380.26 44.2 1375.66 59.4 1369.63 44.72 1355.63 52.22 1361.75 37.56 1346.55 32.97 1361.24 26.93 1353.74 12.93 1368.39 19.05 1372.99 3.85 1379.02 18.54 1393.02 11.04 1386.9 25.7 1402.1 30.29 1387.41 36.33 1394.91 50.32"/>
    </g>
  </g>
</svg>