<?xml version="1.0" encoding="UTF-8"?>
<svg id="Layer_2" data-name="Layer 2" xmlns="http://www.w3.org/2000/svg" viewBox="0 0 185.05 48.47">
  <g id="Layer_1-2" data-name="Layer 1">
    <g>
      <path d="m8.81,4.41v8.81H0V4.41h8.81Zm0,13.22v30.84H0v-30.84h8.81Z"/>
      <path d="m17.62,48.47v-4.41h8.81v-17.62h-4.41v4.41h-4.41v-4.41h4.41v-4.41h4.41v-13.22h-4.41v8.81h-4.41v-8.81h4.41v-4.41h13.22v17.62h13.22V4.41h4.41V0h13.22v4.41h-8.81v39.65h4.41v-4.41h4.41v-4.41h4.41v4.41h-4.41v4.41h-4.41v4.41h-13.22v-22.03h-13.22v17.62h-4.41v4.41h-13.22Z"/>
      <path d="m74.9,48.47v-4.41h-4.41v-22.03h4.41v-4.41h22.03v4.41h4.41v17.62h-4.41v4.41h-4.41v4.41h-17.62Zm4.41-4.41h8.81v-4.41h4.41v-17.62h-13.22v22.03Z"/>
      <path d="m105.75,48.47V4.41h4.41V0h13.22v4.41h-8.81v39.65h4.41v-4.41h4.41v-4.41h4.41v4.41h-4.41v4.41h-4.41v4.41h-13.22Z"/>
      <path d="m132.18,48.47v-4.41h-4.41v-22.03h4.41v-4.41h26.44v22.03h4.41v-4.41h4.41v4.41h-4.41v4.41h-4.41v4.41h-8.81v-8.81h-4.41v4.41h-4.41v4.41h-8.81Zm8.46-4.76v-4.41h4.41v-4.05h4.76v-13.22h-13.22v21.68h4.05Z"/>
      <path d="m176.24,35.25V4.41h8.81v30.84h-8.81Zm0,13.22v-8.81h8.81v8.81h-8.81Z"/>
    </g>
  </g>
</svg>